<?xml version="1.0" encoding="UTF-8" standalone="no"?>
<svg width="1923px" height="1546px" viewBox="0 0 1923 1546" version="1.1" xmlns="http://www.w3.org/2000/svg" xmlns:xlink="http://www.w3.org/1999/xlink" xmlns:sketch="http://www.bohemiancoding.com/sketch/ns">
    <!-- Generator: Sketch 3.5.1 (25234) - http://www.bohemiancoding.com/sketch -->
    <title>Group</title>
    <desc>Created with Sketch.</desc>
    <defs>
        <linearGradient x1="50%" y1="0%" x2="50%" y2="100%" id="linearGradient-1">
            <stop stop-color="#FFFFFF" offset="0%"></stop>
            <stop stop-color="#00BEFF" offset="100%"></stop>
        </linearGradient>
    </defs>
    <g id="Page-1" stroke="none" stroke-width="1" fill="none" fill-rule="evenodd" sketch:type="MSPage">
        <g id="Group" sketch:type="MSLayerGroup" transform="translate(1.000000, 1.000000)" stroke="url(#linearGradient-1)" stroke-width="2">
            <path d="M1731.3942,961.8281 C1538.6042,961.8281 1538.6042,757.6901 1345.8192,757.6901 C1153.0212,757.6901 1153.0212,961.8281 960.2282,961.8281 C767.4272,961.8281 767.4272,757.6901 574.6222,757.6901 C381.8212,757.6901 381.8212,961.8281 189.0172,961.8281 M1731.3942,979.8301 C1538.6042,979.8301 1538.6042,775.6921 1345.8192,775.6921 C1153.0212,775.6921 1153.0212,979.8301 960.2282,979.8301 C767.4272,979.8301 767.4272,775.6921 574.6222,775.6921 C381.8212,775.6921 381.8212,979.8301 189.0172,979.8301 M1731.3942,997.8321 C1538.6042,997.8321 1538.6042,793.6941 1345.8192,793.6941 C1153.0212,793.6941 1153.0212,997.8321 960.2282,997.8321 C767.4272,997.8321 767.4272,793.6941 574.6222,793.6941 C381.8212,793.6941 381.8212,997.8321 189.0172,997.8321 M1731.3942,1015.8341 C1538.6042,1015.8341 1538.6042,811.6961 1345.8192,811.6961 C1153.0212,811.6961 1153.0212,1015.8341 960.2282,1015.8341 C767.4272,1015.8341 767.4272,811.6961 574.6222,811.6961 C381.8212,811.6961 381.8212,1015.8341 189.0172,1015.8341 M1731.3942,1033.8361 C1538.6042,1033.8361 1538.6042,829.6981 1345.8192,829.6981 C1153.0212,829.6981 1153.0212,1033.8361 960.2282,1033.8361 C767.4272,1033.8361 767.4272,829.6981 574.6222,829.6981 C381.8212,829.6981 381.8212,1033.8361 189.0172,1033.8361 M1731.3942,1051.8381 C1538.6042,1051.8381 1538.6042,847.7001 1345.8192,847.7001 C1153.0212,847.7001 1153.0212,1051.8381 960.2282,1051.8381 C767.4272,1051.8381 767.4272,847.7001 574.6222,847.7001 C381.8212,847.7001 381.8212,1051.8381 189.0172,1051.8381 M1731.3942,1069.8361 C1538.6042,1069.8361 1538.6042,865.6981 1345.8192,865.6981 C1153.0212,865.6981 1153.0212,1069.8361 960.2282,1069.8361 C767.4272,1069.8361 767.4272,865.6981 574.6222,865.6981 C381.8212,865.6981 381.8212,1069.8361 189.0172,1069.8361 M1731.3942,1087.8381 C1538.6042,1087.8381 1538.6042,883.7001 1345.8192,883.7001 C1153.0212,883.7001 1153.0212,1087.8381 960.2282,1087.8381 C767.4272,1087.8381 767.4272,883.7001 574.6222,883.7001 C381.8212,883.7001 381.8212,1087.8381 189.0172,1087.8381 M1731.3942,1105.8401 C1538.6042,1105.8401 1538.6042,901.7021 1345.8192,901.7021 C1153.0212,901.7021 1153.0212,1105.8401 960.2282,1105.8401 C767.4272,1105.8401 767.4272,901.7021 574.6222,901.7021 C381.8212,901.7021 381.8212,1105.8401 189.0172,1105.8401 M1731.3942,1123.8421 C1538.6042,1123.8421 1538.6042,919.7041 1345.8192,919.7041 C1153.0212,919.7041 1153.0212,1123.8421 960.2282,1123.8421 C767.4272,1123.8421 767.4272,919.7041 574.6222,919.7041 C381.8212,919.7041 381.8212,1123.8421 189.0172,1123.8421 M1731.3942,1141.8441 C1538.6042,1141.8441 1538.6042,937.7061 1345.8192,937.7061 C1153.0212,937.7061 1153.0212,1141.8441 960.2282,1141.8441 C767.4272,1141.8441 767.4272,937.7061 574.6222,937.7061 C381.8212,937.7061 381.8212,1141.8441 189.0172,1141.8441 M1731.3942,1159.8461 C1538.6042,1159.8461 1538.6042,955.7081 1345.8192,955.7081 C1153.0212,955.7081 1153.0212,1159.8461 960.2282,1159.8461 C767.4272,1159.8461 767.4272,955.7081 574.6222,955.7081 C381.8212,955.7081 381.8212,1159.8461 189.0172,1159.8461 M1731.3942,1177.8481 C1538.6042,1177.8481 1538.6042,973.7101 1345.8192,973.7101 C1153.0212,973.7101 1153.0212,1177.8481 960.2282,1177.8481 C767.4272,1177.8481 767.4272,973.7101 574.6222,973.7101 C381.8212,973.7101 381.8212,1177.8481 189.0172,1177.8481 M1731.3942,1195.8501 C1538.6042,1195.8501 1538.6042,991.7121 1345.8192,991.7121 C1153.0212,991.7121 1153.0212,1195.8501 960.2282,1195.8501 C767.4272,1195.8501 767.4272,991.7121 574.6222,991.7121 C381.8212,991.7121 381.8212,1195.8501 189.0172,1195.8501 M1731.3942,1213.8521 C1538.6042,1213.8521 1538.6042,1009.7141 1345.8192,1009.7141 C1153.0212,1009.7141 1153.0212,1213.8521 960.2282,1213.8521 C767.4272,1213.8521 767.4272,1009.7141 574.6222,1009.7141 C381.8212,1009.7141 381.8212,1213.8521 189.0172,1213.8521 M1731.3942,1231.8541 C1538.6042,1231.8541 1538.6042,1027.7161 1345.8192,1027.7161 C1153.0212,1027.7161 1153.0212,1231.8541 960.2282,1231.8541 C767.4272,1231.8541 767.4272,1027.7161 574.6222,1027.7161 C381.8212,1027.7161 381.8212,1231.8541 189.0172,1231.8541 M1731.3942,1249.8521 C1538.6042,1249.8521 1538.6042,1045.7141 1345.8192,1045.7141 C1153.0212,1045.7141 1153.0212,1249.8521 960.2282,1249.8521 C767.4272,1249.8521 767.4272,1045.7141 574.6222,1045.7141 C381.8212,1045.7141 381.8212,1249.8521 189.0172,1249.8521 M1731.3942,1267.8541 C1538.6042,1267.8541 1538.6042,1063.7161 1345.8192,1063.7161 C1153.0212,1063.7161 1153.0212,1267.8541 960.2282,1267.8541 C767.4272,1267.8541 767.4272,1063.7161 574.6222,1063.7161 C381.8212,1063.7161 381.8212,1267.8541 189.0172,1267.8541 M1731.3942,1285.8561 C1538.6042,1285.8561 1538.6042,1081.7181 1345.8192,1081.7181 C1153.0212,1081.7181 1153.0212,1285.8561 960.2282,1285.8561 C767.4272,1285.8561 767.4272,1081.7181 574.6222,1081.7181 C381.8212,1081.7181 381.8212,1285.8561 189.0172,1285.8561 M1731.3942,1303.8581 C1538.6042,1303.8581 1538.6042,1099.7201 1345.8192,1099.7201 C1153.0212,1099.7201 1153.0212,1303.8581 960.2282,1303.8581 C767.4272,1303.8581 767.4272,1099.7201 574.6222,1099.7201 C381.8212,1099.7201 381.8212,1303.8581 189.0172,1303.8581 M1731.3942,1321.8601 C1538.6042,1321.8601 1538.6042,1117.7221 1345.8192,1117.7221 C1153.0212,1117.7221 1153.0212,1321.8601 960.2282,1321.8601 C767.4272,1321.8601 767.4272,1117.7221 574.6222,1117.7221 C381.8212,1117.7221 381.8212,1321.8601 189.0172,1321.8601 M1731.3942,1339.8621 C1538.6042,1339.8621 1538.6042,1135.7241 1345.8192,1135.7241 C1153.0212,1135.7241 1153.0212,1339.8621 960.2282,1339.8621 C767.4272,1339.8621 767.4272,1135.7241 574.6222,1135.7241 C381.8212,1135.7241 381.8212,1339.8621 189.0172,1339.8621 M189.0172,1339.8621 C381.8062,1339.8621 381.8062,1544.0001 574.5922,1544.0001 C767.3892,1544.0001 767.3892,1339.8621 960.1832,1339.8621 C1152.9842,1339.8621 1152.9842,1544.0001 1345.7882,1544.0001 C1538.5892,1544.0001 1538.5892,1339.8621 1731.3942,1339.8621 M189.0172,1321.8601 C381.8062,1321.8601 381.8062,1525.9981 574.5922,1525.9981 C767.3892,1525.9981 767.3892,1321.8601 960.1832,1321.8601 C1152.9842,1321.8601 1152.9842,1525.9981 1345.7882,1525.9981 C1538.5892,1525.9981 1538.5892,1321.8601 1731.3942,1321.8601 M189.0172,1303.8581 C381.8062,1303.8581 381.8062,1507.9961 574.5922,1507.9961 C767.3892,1507.9961 767.3892,1303.8581 960.1832,1303.8581 C1152.9842,1303.8581 1152.9842,1507.9961 1345.7882,1507.9961 C1538.5892,1507.9961 1538.5892,1303.8581 1731.3942,1303.8581 M189.0172,1285.8561 C381.8062,1285.8561 381.8062,1489.9941 574.5922,1489.9941 C767.3892,1489.9941 767.3892,1285.8561 960.1832,1285.8561 C1152.9842,1285.8561 1152.9842,1489.9941 1345.7882,1489.9941 C1538.5892,1489.9941 1538.5892,1285.8561 1731.3942,1285.8561 M189.0172,1267.8541 C381.8062,1267.8541 381.8062,1471.9921 574.5922,1471.9921 C767.3892,1471.9921 767.3892,1267.8541 960.1832,1267.8541 C1152.9842,1267.8541 1152.9842,1471.9921 1345.7882,1471.9921 C1538.5892,1471.9921 1538.5892,1267.8541 1731.3942,1267.8541 M189.0172,1249.8521 C381.8062,1249.8521 381.8062,1453.9901 574.5922,1453.9901 C767.3892,1453.9901 767.3892,1249.8521 960.1832,1249.8521 C1152.9842,1249.8521 1152.9842,1453.9901 1345.7882,1453.9901 C1538.5892,1453.9901 1538.5892,1249.8521 1731.3942,1249.8521 M189.0172,1231.8541 C381.8062,1231.8541 381.8062,1435.9921 574.5922,1435.9921 C767.3892,1435.9921 767.3892,1231.8541 960.1832,1231.8541 C1152.9842,1231.8541 1152.9842,1435.9921 1345.7882,1435.9921 C1538.5892,1435.9921 1538.5892,1231.8541 1731.3942,1231.8541 M189.0172,1213.8521 C381.8062,1213.8521 381.8062,1417.9901 574.5922,1417.9901 C767.3892,1417.9901 767.3892,1213.8521 960.1832,1213.8521 C1152.9842,1213.8521 1152.9842,1417.9901 1345.7882,1417.9901 C1538.5892,1417.9901 1538.5892,1213.8521 1731.3942,1213.8521 M189.0172,1195.8501 C381.8062,1195.8501 381.8062,1399.9881 574.5922,1399.9881 C767.3892,1399.9881 767.3892,1195.8501 960.1832,1195.8501 C1152.9842,1195.8501 1152.9842,1399.9881 1345.7882,1399.9881 C1538.5892,1399.9881 1538.5892,1195.8501 1731.3942,1195.8501 M189.0172,1177.8481 C381.8062,1177.8481 381.8062,1381.9861 574.5922,1381.9861 C767.3892,1381.9861 767.3892,1177.8481 960.1832,1177.8481 C1152.9842,1177.8481 1152.9842,1381.9861 1345.7882,1381.9861 C1538.5892,1381.9861 1538.5892,1177.8481 1731.3942,1177.8481 M189.0172,1159.8461 C381.8062,1159.8461 381.8062,1363.9841 574.5922,1363.9841 C767.3892,1363.9841 767.3892,1159.8461 960.1832,1159.8461 C1152.9842,1159.8461 1152.9842,1363.9841 1345.7882,1363.9841 C1538.5892,1363.9841 1538.5892,1159.8461 1731.3942,1159.8461 M189.0172,1141.8441 C381.8062,1141.8441 381.8062,1345.9821 574.5922,1345.9821 C767.3892,1345.9821 767.3892,1141.8441 960.1832,1141.8441 C1152.9842,1141.8441 1152.9842,1345.9821 1345.7882,1345.9821 C1538.5892,1345.9821 1538.5892,1141.8441 1731.3942,1141.8441 M189.0172,1123.8421 C381.8062,1123.8421 381.8062,1327.9801 574.5922,1327.9801 C767.3892,1327.9801 767.3892,1123.8421 960.1832,1123.8421 C1152.9842,1123.8421 1152.9842,1327.9801 1345.7882,1327.9801 C1538.5892,1327.9801 1538.5892,1123.8421 1731.3942,1123.8421 M189.0172,1105.8401 C381.8062,1105.8401 381.8062,1309.9781 574.5922,1309.9781 C767.3892,1309.9781 767.3892,1105.8401 960.1832,1105.8401 C1152.9842,1105.8401 1152.9842,1309.9781 1345.7882,1309.9781 C1538.5892,1309.9781 1538.5892,1105.8401 1731.3942,1105.8401 M189.0172,1087.8381 C381.8062,1087.8381 381.8062,1291.9761 574.5922,1291.9761 C767.3892,1291.9761 767.3892,1087.8381 960.1832,1087.8381 C1152.9842,1087.8381 1152.9842,1291.9761 1345.7882,1291.9761 C1538.5892,1291.9761 1538.5892,1087.8381 1731.3942,1087.8381 M189.0172,1069.8361 C381.8062,1069.8361 381.8062,1273.9741 574.5922,1273.9741 C767.3892,1273.9741 767.3892,1069.8361 960.1832,1069.8361 C1152.9842,1069.8361 1152.9842,1273.9741 1345.7882,1273.9741 C1538.5892,1273.9741 1538.5892,1069.8361 1731.3942,1069.8361 M189.0172,1051.8381 C381.8062,1051.8381 381.8062,1255.9761 574.5922,1255.9761 C767.3892,1255.9761 767.3892,1051.8381 960.1832,1051.8381 C1152.9842,1051.8381 1152.9842,1255.9761 1345.7882,1255.9761 C1538.5892,1255.9761 1538.5892,1051.8381 1731.3942,1051.8381 M189.0172,1033.8361 C381.8062,1033.8361 381.8062,1237.9741 574.5922,1237.9741 C767.3892,1237.9741 767.3892,1033.8361 960.1832,1033.8361 C1152.9842,1033.8361 1152.9842,1237.9741 1345.7882,1237.9741 C1538.5892,1237.9741 1538.5892,1033.8361 1731.3942,1033.8361 M189.0172,1015.8341 C381.8062,1015.8341 381.8062,1219.9721 574.5922,1219.9721 C767.3892,1219.9721 767.3892,1015.8341 960.1832,1015.8341 C1152.9842,1015.8341 1152.9842,1219.9721 1345.7882,1219.9721 C1538.5892,1219.9721 1538.5892,1015.8341 1731.3942,1015.8341 M189.0172,997.8321 C381.8062,997.8321 381.8062,1201.9701 574.5922,1201.9701 C767.3892,1201.9701 767.3892,997.8321 960.1832,997.8321 C1152.9842,997.8321 1152.9842,1201.9701 1345.7882,1201.9701 C1538.5892,1201.9701 1538.5892,997.8321 1731.3942,997.8321 M189.0172,979.8301 C381.8062,979.8301 381.8062,1183.9681 574.5922,1183.9681 C767.3892,1183.9681 767.3892,979.8301 960.1832,979.8301 C1152.9842,979.8301 1152.9842,1183.9681 1345.7882,1183.9681 C1538.5892,1183.9681 1538.5892,979.8301 1731.3942,979.8301 M189.0172,961.8281 C381.8062,961.8281 381.8062,1165.9661 574.5922,1165.9661 C767.3892,1165.9661 767.3892,961.8281 960.1832,961.8281 C1152.9842,961.8281 1152.9842,1165.9661 1345.7882,1165.9661 C1538.5892,1165.9661 1538.5892,961.8281 1731.3942,961.8281 M1731.3942,961.6431 C1835.7842,961.6431 1920.4112,1046.2661 1920.4112,1150.6561 C1920.4112,1255.0501 1835.7842,1339.6731 1731.3942,1339.6731 M1731.3942,979.6371 C1825.8462,979.6371 1902.4162,1056.2041 1902.4162,1150.6561 C1902.4162,1245.1111 1825.8462,1321.6781 1731.3942,1321.6781 M1731.3942,997.6281 C1815.9072,997.6281 1884.4222,1066.1431 1884.4222,1150.6561 C1884.4222,1235.1731 1815.9072,1303.6841 1731.3942,1303.6841 M1731.3942,1015.6221 C1805.9722,1015.6221 1866.4282,1076.0811 1866.4282,1150.6561 C1866.4282,1225.2341 1805.9722,1285.6891 1731.3942,1285.6891 M1731.3942,1033.6171 C1796.0342,1033.6171 1848.4332,1086.0201 1848.4332,1150.6561 C1848.4332,1215.2961 1796.0342,1267.6991 1731.3942,1267.6991 M1731.3942,1051.6111 C1786.0952,1051.6111 1830.4392,1095.9581 1830.4392,1150.6561 C1830.4392,1205.3571 1786.0952,1249.7041 1731.3942,1249.7041 M1731.3942,1069.6051 C1776.1572,1069.6051 1812.4442,1105.8931 1812.4442,1150.6561 C1812.4442,1195.4191 1776.1572,1231.7101 1731.3942,1231.7101 M1731.3942,1087.6041 C1766.2182,1087.6041 1794.4502,1115.8311 1794.4502,1150.6561 C1794.4502,1185.4841 1766.2182,1213.7121 1731.3942,1213.7121 M1731.3942,1105.5981 C1756.2802,1105.5981 1776.4562,1125.7701 1776.4562,1150.6561 C1776.4562,1175.5461 1756.2802,1195.7171 1731.3942,1195.7171 M1731.3942,1123.5921 C1746.3412,1123.5921 1758.4612,1135.7081 1758.4612,1150.6561 C1758.4612,1165.6071 1746.3412,1177.7231 1731.3942,1177.7231 M1731.3942,1141.5871 C1736.4032,1141.5871 1740.4672,1145.6471 1740.4672,1150.6561 C1740.4672,1155.6691 1736.4032,1159.7321 1731.3942,1159.7321 M189.0172,1340.0511 C84.6262,1340.0511 0.0002,1255.4241 0.0002,1151.0341 C0.0002,1046.6401 84.6262,962.0131 189.0172,962.0131 M189.0172,1322.0561 C94.5652,1322.0561 17.9942,1245.4861 17.9942,1151.0341 C17.9942,1056.5781 94.5652,980.0111 189.0172,980.0111 M189.0172,1304.0621 C104.5032,1304.0621 35.9892,1235.5471 35.9892,1151.0341 C35.9892,1066.5171 104.5032,998.0061 189.0172,998.0061 M189.0172,1286.0681 C114.4382,1286.0681 53.9832,1225.6091 53.9832,1151.0341 C53.9832,1076.4551 114.4382,1016.0001 189.0172,1016.0001 M189.0172,1268.0731 C124.3772,1268.0731 71.9772,1215.6701 71.9772,1151.0341 C71.9772,1086.3941 124.3772,1033.9911 189.0172,1033.9911 M189.0172,1250.0791 C134.3152,1250.0791 89.9722,1205.7321 89.9722,1151.0341 C89.9722,1096.3321 134.3152,1051.9851 189.0172,1051.9851 M189.0172,1232.0841 C144.2542,1232.0841 107.9662,1195.7971 107.9662,1151.0341 C107.9662,1106.2711 144.2542,1069.9801 189.0172,1069.9801 M189.0172,1214.0861 C154.1922,1214.0861 125.9612,1185.8581 125.9612,1151.0341 C125.9612,1116.2061 154.1922,1087.9781 189.0172,1087.9781 M189.0172,1196.0921 C164.1312,1196.0921 143.9552,1175.9201 143.9552,1151.0341 C143.9552,1126.1441 164.1312,1105.9721 189.0172,1105.9721 M189.0172,1178.0971 C174.0692,1178.0971 161.9492,1165.9811 161.9492,1151.0341 C161.9492,1136.0831 174.0692,1123.9671 189.0172,1123.9671 M189.0172,1160.1031 C184.0082,1160.1031 179.9442,1156.0431 179.9442,1151.0341 C179.9442,1146.0211 184.0082,1141.9571 189.0172,1141.9571" id="Stroke-1" sketch:type="MSShapeGroup"></path>
            <path d="M1731.3942,582.7945 C1538.6042,582.7945 1538.6042,378.6565 1345.8192,378.6565 C1153.0212,378.6565 1153.0212,582.7945 960.2282,582.7945 C767.4272,582.7945 767.4272,378.6565 574.6222,378.6565 C381.8212,378.6565 381.8212,582.7945 189.0172,582.7945 M1731.3942,600.7965 C1538.6042,600.7965 1538.6042,396.6585 1345.8192,396.6585 C1153.0212,396.6585 1153.0212,600.7965 960.2282,600.7965 C767.4272,600.7965 767.4272,396.6585 574.6222,396.6585 C381.8212,396.6585 381.8212,600.7965 189.0172,600.7965 M1731.3942,618.7985 C1538.6042,618.7985 1538.6042,414.6605 1345.8192,414.6605 C1153.0212,414.6605 1153.0212,618.7985 960.2282,618.7985 C767.4272,618.7985 767.4272,414.6605 574.6222,414.6605 C381.8212,414.6605 381.8212,618.7985 189.0172,618.7985 M1731.3942,636.8005 C1538.6042,636.8005 1538.6042,432.6625 1345.8192,432.6625 C1153.0212,432.6625 1153.0212,636.8005 960.2282,636.8005 C767.4272,636.8005 767.4272,432.6625 574.6222,432.6625 C381.8212,432.6625 381.8212,636.8005 189.0172,636.8005 M1731.3942,654.8025 C1538.6042,654.8025 1538.6042,450.6645 1345.8192,450.6645 C1153.0212,450.6645 1153.0212,654.8025 960.2282,654.8025 C767.4272,654.8025 767.4272,450.6645 574.6222,450.6645 C381.8212,450.6645 381.8212,654.8025 189.0172,654.8025 M1731.3942,672.8045 C1538.6042,672.8045 1538.6042,468.6665 1345.8192,468.6665 C1153.0212,468.6665 1153.0212,672.8045 960.2282,672.8045 C767.4272,672.8045 767.4272,468.6665 574.6222,468.6665 C381.8212,468.6665 381.8212,672.8045 189.0172,672.8045 M1731.3942,690.8025 C1538.6042,690.8025 1538.6042,486.6645 1345.8192,486.6645 C1153.0212,486.6645 1153.0212,690.8025 960.2282,690.8025 C767.4272,690.8025 767.4272,486.6645 574.6222,486.6645 C381.8212,486.6645 381.8212,690.8025 189.0172,690.8025 M1731.3942,708.8045 C1538.6042,708.8045 1538.6042,504.6665 1345.8192,504.6665 C1153.0212,504.6665 1153.0212,708.8045 960.2282,708.8045 C767.4272,708.8045 767.4272,504.6665 574.6222,504.6665 C381.8212,504.6665 381.8212,708.8045 189.0172,708.8045 M1731.3942,726.8065 C1538.6042,726.8065 1538.6042,522.6685 1345.8192,522.6685 C1153.0212,522.6685 1153.0212,726.8065 960.2282,726.8065 C767.4272,726.8065 767.4272,522.6685 574.6222,522.6685 C381.8212,522.6685 381.8212,726.8065 189.0172,726.8065 M1731.3942,744.8085 C1538.6042,744.8085 1538.6042,540.6705 1345.8192,540.6705 C1153.0212,540.6705 1153.0212,744.8085 960.2282,744.8085 C767.4272,744.8085 767.4272,540.6705 574.6222,540.6705 C381.8212,540.6705 381.8212,744.8085 189.0172,744.8085 M1731.3942,762.8105 C1538.6042,762.8105 1538.6042,558.6725 1345.8192,558.6725 C1153.0212,558.6725 1153.0212,762.8105 960.2282,762.8105 C767.4272,762.8105 767.4272,558.6725 574.6222,558.6725 C381.8212,558.6725 381.8212,762.8105 189.0172,762.8105 M1731.3942,780.8125 C1538.6042,780.8125 1538.6042,576.6745 1345.8192,576.6745 C1153.0212,576.6745 1153.0212,780.8125 960.2282,780.8125 C767.4272,780.8125 767.4272,576.6745 574.6222,576.6745 C381.8212,576.6745 381.8212,780.8125 189.0172,780.8125 M1731.3942,798.8145 C1538.6042,798.8145 1538.6042,594.6765 1345.8192,594.6765 C1153.0212,594.6765 1153.0212,798.8145 960.2282,798.8145 C767.4272,798.8145 767.4272,594.6765 574.6222,594.6765 C381.8212,594.6765 381.8212,798.8145 189.0172,798.8145 M1731.3942,816.8165 C1538.6042,816.8165 1538.6042,612.6785 1345.8192,612.6785 C1153.0212,612.6785 1153.0212,816.8165 960.2282,816.8165 C767.4272,816.8165 767.4272,612.6785 574.6222,612.6785 C381.8212,612.6785 381.8212,816.8165 189.0172,816.8165 M1731.3942,834.8185 C1538.6042,834.8185 1538.6042,630.6805 1345.8192,630.6805 C1153.0212,630.6805 1153.0212,834.8185 960.2282,834.8185 C767.4272,834.8185 767.4272,630.6805 574.6222,630.6805 C381.8212,630.6805 381.8212,834.8185 189.0172,834.8185 M1731.3942,852.8205 C1538.6042,852.8205 1538.6042,648.6815 1345.8192,648.6815 C1153.0212,648.6815 1153.0212,852.8205 960.2282,852.8205 C767.4272,852.8205 767.4272,648.6815 574.6222,648.6815 C381.8212,648.6815 381.8212,852.8205 189.0172,852.8205 M1731.3942,870.8185 C1538.6042,870.8185 1538.6042,666.6805 1345.8192,666.6805 C1153.0212,666.6805 1153.0212,870.8185 960.2282,870.8185 C767.4272,870.8185 767.4272,666.6805 574.6222,666.6805 C381.8212,666.6805 381.8212,870.8185 189.0172,870.8185 M1731.3942,888.8205 C1538.6042,888.8205 1538.6042,684.6825 1345.8192,684.6825 C1153.0212,684.6825 1153.0212,888.8205 960.2282,888.8205 C767.4272,888.8205 767.4272,684.6825 574.6222,684.6825 C381.8212,684.6825 381.8212,888.8205 189.0172,888.8205 M1731.3942,906.8225 C1538.6042,906.8225 1538.6042,702.6845 1345.8192,702.6845 C1153.0212,702.6845 1153.0212,906.8225 960.2282,906.8225 C767.4272,906.8225 767.4272,702.6845 574.6222,702.6845 C381.8212,702.6845 381.8212,906.8225 189.0172,906.8225 M1731.3942,924.8245 C1538.6042,924.8245 1538.6042,720.6865 1345.8192,720.6865 C1153.0212,720.6865 1153.0212,924.8245 960.2282,924.8245 C767.4272,924.8245 767.4272,720.6865 574.6222,720.6865 C381.8212,720.6865 381.8212,924.8245 189.0172,924.8245 M1731.3942,942.8265 C1538.6042,942.8265 1538.6042,738.6875 1345.8192,738.6875 C1153.0212,738.6875 1153.0212,942.8265 960.2282,942.8265 C767.4272,942.8265 767.4272,738.6875 574.6222,738.6875 C381.8212,738.6875 381.8212,942.8265 189.0172,942.8265 M1731.3942,960.8285 C1538.6042,960.8285 1538.6042,756.6895 1345.8192,756.6895 C1153.0212,756.6895 1153.0212,960.8285 960.2282,960.8285 C767.4272,960.8285 767.4272,756.6895 574.6222,756.6895 C381.8212,756.6895 381.8212,960.8285 189.0172,960.8285 M189.0172,960.8285 C381.8062,960.8285 381.8062,1164.9665 574.5922,1164.9665 C767.3892,1164.9665 767.3892,960.8285 960.1832,960.8285 C1152.9842,960.8285 1152.9842,1164.9665 1345.7882,1164.9665 C1538.5892,1164.9665 1538.5892,960.8285 1731.3942,960.8285 M189.0172,942.8265 C381.8062,942.8265 381.8062,1146.9645 574.5922,1146.9645 C767.3892,1146.9645 767.3892,942.8265 960.1832,942.8265 C1152.9842,942.8265 1152.9842,1146.9645 1345.7882,1146.9645 C1538.5892,1146.9645 1538.5892,942.8265 1731.3942,942.8265 M189.0172,924.8245 C381.8062,924.8245 381.8062,1128.9625 574.5922,1128.9625 C767.3892,1128.9625 767.3892,924.8245 960.1832,924.8245 C1152.9842,924.8245 1152.9842,1128.9625 1345.7882,1128.9625 C1538.5892,1128.9625 1538.5892,924.8245 1731.3942,924.8245 M189.0172,906.8225 C381.8062,906.8225 381.8062,1110.9605 574.5922,1110.9605 C767.3892,1110.9605 767.3892,906.8225 960.1832,906.8225 C1152.9842,906.8225 1152.9842,1110.9605 1345.7882,1110.9605 C1538.5892,1110.9605 1538.5892,906.8225 1731.3942,906.8225 M189.0172,888.8205 C381.8062,888.8205 381.8062,1092.9585 574.5922,1092.9585 C767.3892,1092.9585 767.3892,888.8205 960.1832,888.8205 C1152.9842,888.8205 1152.9842,1092.9585 1345.7882,1092.9585 C1538.5892,1092.9585 1538.5892,888.8205 1731.3942,888.8205 M189.0172,870.8185 C381.8062,870.8185 381.8062,1074.9565 574.5922,1074.9565 C767.3892,1074.9565 767.3892,870.8185 960.1832,870.8185 C1152.9842,870.8185 1152.9842,1074.9565 1345.7882,1074.9565 C1538.5892,1074.9565 1538.5892,870.8185 1731.3942,870.8185 M189.0172,852.8205 C381.8062,852.8205 381.8062,1056.9585 574.5922,1056.9585 C767.3892,1056.9585 767.3892,852.8205 960.1832,852.8205 C1152.9842,852.8205 1152.9842,1056.9585 1345.7882,1056.9585 C1538.5892,1056.9585 1538.5892,852.8205 1731.3942,852.8205 M189.0172,834.8185 C381.8062,834.8185 381.8062,1038.9565 574.5922,1038.9565 C767.3892,1038.9565 767.3892,834.8185 960.1832,834.8185 C1152.9842,834.8185 1152.9842,1038.9565 1345.7882,1038.9565 C1538.5892,1038.9565 1538.5892,834.8185 1731.3942,834.8185 M189.0172,816.8165 C381.8062,816.8165 381.8062,1020.9545 574.5922,1020.9545 C767.3892,1020.9545 767.3892,816.8165 960.1832,816.8165 C1152.9842,816.8165 1152.9842,1020.9545 1345.7882,1020.9545 C1538.5892,1020.9545 1538.5892,816.8165 1731.3942,816.8165 M189.0172,798.8145 C381.8062,798.8145 381.8062,1002.9525 574.5922,1002.9525 C767.3892,1002.9525 767.3892,798.8145 960.1832,798.8145 C1152.9842,798.8145 1152.9842,1002.9525 1345.7882,1002.9525 C1538.5892,1002.9525 1538.5892,798.8145 1731.3942,798.8145 M189.0172,780.8125 C381.8062,780.8125 381.8062,984.9505 574.5922,984.9505 C767.3892,984.9505 767.3892,780.8125 960.1832,780.8125 C1152.9842,780.8125 1152.9842,984.9505 1345.7882,984.9505 C1538.5892,984.9505 1538.5892,780.8125 1731.3942,780.8125 M189.0172,762.8105 C381.8062,762.8105 381.8062,966.9485 574.5922,966.9485 C767.3892,966.9485 767.3892,762.8105 960.1832,762.8105 C1152.9842,762.8105 1152.9842,966.9485 1345.7882,966.9485 C1538.5892,966.9485 1538.5892,762.8105 1731.3942,762.8105 M189.0172,744.8085 C381.8062,744.8085 381.8062,948.9465 574.5922,948.9465 C767.3892,948.9465 767.3892,744.8085 960.1832,744.8085 C1152.9842,744.8085 1152.9842,948.9465 1345.7882,948.9465 C1538.5892,948.9465 1538.5892,744.8085 1731.3942,744.8085 M189.0172,726.8065 C381.8062,726.8065 381.8062,930.9445 574.5922,930.9445 C767.3892,930.9445 767.3892,726.8065 960.1832,726.8065 C1152.9842,726.8065 1152.9842,930.9445 1345.7882,930.9445 C1538.5892,930.9445 1538.5892,726.8065 1731.3942,726.8065 M189.0172,708.8045 C381.8062,708.8045 381.8062,912.9425 574.5922,912.9425 C767.3892,912.9425 767.3892,708.8045 960.1832,708.8045 C1152.9842,708.8045 1152.9842,912.9425 1345.7882,912.9425 C1538.5892,912.9425 1538.5892,708.8045 1731.3942,708.8045 M189.0172,690.8025 C381.8062,690.8025 381.8062,894.9405 574.5922,894.9405 C767.3892,894.9405 767.3892,690.8025 960.1832,690.8025 C1152.9842,690.8025 1152.9842,894.9405 1345.7882,894.9405 C1538.5892,894.9405 1538.5892,690.8025 1731.3942,690.8025 M189.0172,672.8045 C381.8062,672.8045 381.8062,876.9425 574.5922,876.9425 C767.3892,876.9425 767.3892,672.8045 960.1832,672.8045 C1152.9842,672.8045 1152.9842,876.9425 1345.7882,876.9425 C1538.5892,876.9425 1538.5892,672.8045 1731.3942,672.8045 M189.0172,654.8025 C381.8062,654.8025 381.8062,858.9405 574.5922,858.9405 C767.3892,858.9405 767.3892,654.8025 960.1832,654.8025 C1152.9842,654.8025 1152.9842,858.9405 1345.7882,858.9405 C1538.5892,858.9405 1538.5892,654.8025 1731.3942,654.8025 M189.0172,636.8005 C381.8062,636.8005 381.8062,840.9385 574.5922,840.9385 C767.3892,840.9385 767.3892,636.8005 960.1832,636.8005 C1152.9842,636.8005 1152.9842,840.9385 1345.7882,840.9385 C1538.5892,840.9385 1538.5892,636.8005 1731.3942,636.8005 M189.0172,618.7985 C381.8062,618.7985 381.8062,822.9365 574.5922,822.9365 C767.3892,822.9365 767.3892,618.7985 960.1832,618.7985 C1152.9842,618.7985 1152.9842,822.9365 1345.7882,822.9365 C1538.5892,822.9365 1538.5892,618.7985 1731.3942,618.7985 M189.0172,600.7965 C381.8062,600.7965 381.8062,804.9345 574.5922,804.9345 C767.3892,804.9345 767.3892,600.7965 960.1832,600.7965 C1152.9842,600.7965 1152.9842,804.9345 1345.7882,804.9345 C1538.5892,804.9345 1538.5892,600.7965 1731.3942,600.7965 M189.0172,582.7945 C381.8062,582.7945 381.8062,786.9325 574.5922,786.9325 C767.3892,786.9325 767.3892,582.7945 960.1832,582.7945 C1152.9842,582.7945 1152.9842,786.9325 1345.7882,786.9325 C1538.5892,786.9325 1538.5892,582.7945 1731.3942,582.7945 M1731.3942,582.6095 C1835.7842,582.6095 1920.4112,667.2325 1920.4112,771.6225 C1920.4112,876.0165 1835.7842,960.6395 1731.3942,960.6395 M1731.3942,600.6035 C1825.8462,600.6035 1902.4162,677.1705 1902.4162,771.6225 C1902.4162,866.0775 1825.8462,942.6445 1731.3942,942.6445 M1731.3942,618.5945 C1815.9072,618.5945 1884.4222,687.1095 1884.4222,771.6225 C1884.4222,856.1395 1815.9072,924.6505 1731.3942,924.6505 M1731.3942,636.5885 C1805.9722,636.5885 1866.4282,697.0475 1866.4282,771.6225 C1866.4282,846.2005 1805.9722,906.6555 1731.3942,906.6555 M1731.3942,654.5835 C1796.0342,654.5835 1848.4332,706.9865 1848.4332,771.6225 C1848.4332,836.2625 1796.0342,888.6655 1731.3942,888.6655 M1731.3942,672.5775 C1786.0952,672.5775 1830.4392,716.9245 1830.4392,771.6225 C1830.4392,826.3235 1786.0952,870.6705 1731.3942,870.6705 M1731.3942,690.5715 C1776.1572,690.5715 1812.4442,726.8595 1812.4442,771.6225 C1812.4442,816.3855 1776.1572,852.6765 1731.3942,852.6765 M1731.3942,708.5705 C1766.2182,708.5705 1794.4502,736.7975 1794.4502,771.6225 C1794.4502,806.4505 1766.2182,834.6785 1731.3942,834.6785 M1731.3942,726.5645 C1756.2802,726.5645 1776.4562,746.7365 1776.4562,771.6225 C1776.4562,796.5125 1756.2802,816.6835 1731.3942,816.6835 M1731.3942,744.5585 C1746.3412,744.5585 1758.4612,756.6745 1758.4612,771.6225 C1758.4612,786.5735 1746.3412,798.6895 1731.3942,798.6895 M1731.3942,762.5535 C1736.4032,762.5535 1740.4672,766.6135 1740.4672,771.6225 C1740.4672,776.6355 1736.4032,780.6985 1731.3942,780.6985 M189.0172,961.0175 C84.6262,961.0175 0.0002,876.3905 0.0002,772.0005 C0.0002,667.6065 84.6262,582.9795 189.0172,582.9795 M189.0172,943.0225 C94.5652,943.0225 17.9942,866.4525 17.9942,772.0005 C17.9942,677.5445 94.5652,600.9775 189.0172,600.9775 M189.0172,925.0285 C104.5032,925.0285 35.9892,856.5135 35.9892,772.0005 C35.9892,687.4835 104.5032,618.9725 189.0172,618.9725 M189.0172,907.0335 C114.4382,907.0335 53.9832,846.5755 53.9832,772.0005 C53.9832,697.4215 114.4382,636.9665 189.0172,636.9665 M189.0172,889.0395 C124.3772,889.0395 71.9772,836.6365 71.9772,772.0005 C71.9772,707.3605 124.3772,654.9575 189.0172,654.9575 M189.0172,871.0455 C134.3152,871.0455 89.9722,826.6985 89.9722,772.0005 C89.9722,717.2985 134.3152,672.9515 189.0172,672.9515 M189.0172,853.0505 C144.2542,853.0505 107.9662,816.7635 107.9662,772.0005 C107.9662,727.2375 144.2542,690.9465 189.0172,690.9465 M189.0172,835.0525 C154.1922,835.0525 125.9612,806.8245 125.9612,772.0005 C125.9612,737.1725 154.1922,708.9445 189.0172,708.9445 M189.0172,817.0585 C164.1312,817.0585 143.9552,796.8865 143.9552,772.0005 C143.9552,747.1105 164.1312,726.9385 189.0172,726.9385 M189.0172,799.0635 C174.0692,799.0635 161.9492,786.9475 161.9492,772.0005 C161.9492,757.0495 174.0692,744.9335 189.0172,744.9335 M189.0172,781.0695 C184.0082,781.0695 179.9442,777.0095 179.9442,772.0005 C179.9442,766.9875 184.0082,762.9235 189.0172,762.9235" id="Stroke-3" sketch:type="MSShapeGroup"></path>
            <path d="M1731.3942,204.5756 C1538.6042,204.5756 1538.6042,0.4376 1345.8192,0.4376 C1153.0212,0.4376 1153.0212,204.5756 960.2282,204.5756 C767.4272,204.5756 767.4272,0.4376 574.6222,0.4376 C381.8212,0.4376 381.8212,204.5756 189.0172,204.5756 M1731.3942,222.5776 C1538.6042,222.5776 1538.6042,18.4396 1345.8192,18.4396 C1153.0212,18.4396 1153.0212,222.5776 960.2282,222.5776 C767.4272,222.5776 767.4272,18.4396 574.6222,18.4396 C381.8212,18.4396 381.8212,222.5776 189.0172,222.5776 M1731.3942,240.5796 C1538.6042,240.5796 1538.6042,36.4416 1345.8192,36.4416 C1153.0212,36.4416 1153.0212,240.5796 960.2282,240.5796 C767.4272,240.5796 767.4272,36.4416 574.6222,36.4416 C381.8212,36.4416 381.8212,240.5796 189.0172,240.5796 M1731.3942,258.5816 C1538.6042,258.5816 1538.6042,54.4436 1345.8192,54.4436 C1153.0212,54.4436 1153.0212,258.5816 960.2282,258.5816 C767.4272,258.5816 767.4272,54.4436 574.6222,54.4436 C381.8212,54.4436 381.8212,258.5816 189.0172,258.5816 M1731.3942,276.5836 C1538.6042,276.5836 1538.6042,72.4456 1345.8192,72.4456 C1153.0212,72.4456 1153.0212,276.5836 960.2282,276.5836 C767.4272,276.5836 767.4272,72.4456 574.6222,72.4456 C381.8212,72.4456 381.8212,276.5836 189.0172,276.5836 M1731.3942,294.5856 C1538.6042,294.5856 1538.6042,90.4476 1345.8192,90.4476 C1153.0212,90.4476 1153.0212,294.5856 960.2282,294.5856 C767.4272,294.5856 767.4272,90.4476 574.6222,90.4476 C381.8212,90.4476 381.8212,294.5856 189.0172,294.5856 M1731.3942,312.5836 C1538.6042,312.5836 1538.6042,108.4456 1345.8192,108.4456 C1153.0212,108.4456 1153.0212,312.5836 960.2282,312.5836 C767.4272,312.5836 767.4272,108.4456 574.6222,108.4456 C381.8212,108.4456 381.8212,312.5836 189.0172,312.5836 M1731.3942,330.5856 C1538.6042,330.5856 1538.6042,126.4476 1345.8192,126.4476 C1153.0212,126.4476 1153.0212,330.5856 960.2282,330.5856 C767.4272,330.5856 767.4272,126.4476 574.6222,126.4476 C381.8212,126.4476 381.8212,330.5856 189.0172,330.5856 M1731.3942,348.5876 C1538.6042,348.5876 1538.6042,144.4496 1345.8192,144.4496 C1153.0212,144.4496 1153.0212,348.5876 960.2282,348.5876 C767.4272,348.5876 767.4272,144.4496 574.6222,144.4496 C381.8212,144.4496 381.8212,348.5876 189.0172,348.5876 M1731.3942,366.5896 C1538.6042,366.5896 1538.6042,162.4516 1345.8192,162.4516 C1153.0212,162.4516 1153.0212,366.5896 960.2282,366.5896 C767.4272,366.5896 767.4272,162.4516 574.6222,162.4516 C381.8212,162.4516 381.8212,366.5896 189.0172,366.5896 M1731.3942,384.5916 C1538.6042,384.5916 1538.6042,180.4536 1345.8192,180.4536 C1153.0212,180.4536 1153.0212,384.5916 960.2282,384.5916 C767.4272,384.5916 767.4272,180.4536 574.6222,180.4536 C381.8212,180.4536 381.8212,384.5916 189.0172,384.5916 M1731.3942,402.5936 C1538.6042,402.5936 1538.6042,198.4556 1345.8192,198.4556 C1153.0212,198.4556 1153.0212,402.5936 960.2282,402.5936 C767.4272,402.5936 767.4272,198.4556 574.6222,198.4556 C381.8212,198.4556 381.8212,402.5936 189.0172,402.5936 M1731.3942,420.5956 C1538.6042,420.5956 1538.6042,216.4576 1345.8192,216.4576 C1153.0212,216.4576 1153.0212,420.5956 960.2282,420.5956 C767.4272,420.5956 767.4272,216.4576 574.6222,216.4576 C381.8212,216.4576 381.8212,420.5956 189.0172,420.5956 M1731.3942,438.5976 C1538.6042,438.5976 1538.6042,234.4596 1345.8192,234.4596 C1153.0212,234.4596 1153.0212,438.5976 960.2282,438.5976 C767.4272,438.5976 767.4272,234.4596 574.6222,234.4596 C381.8212,234.4596 381.8212,438.5976 189.0172,438.5976 M1731.3942,456.5996 C1538.6042,456.5996 1538.6042,252.4616 1345.8192,252.4616 C1153.0212,252.4616 1153.0212,456.5996 960.2282,456.5996 C767.4272,456.5996 767.4272,252.4616 574.6222,252.4616 C381.8212,252.4616 381.8212,456.5996 189.0172,456.5996 M1731.3942,474.6016 C1538.6042,474.6016 1538.6042,270.4626 1345.8192,270.4626 C1153.0212,270.4626 1153.0212,474.6016 960.2282,474.6016 C767.4272,474.6016 767.4272,270.4626 574.6222,270.4626 C381.8212,270.4626 381.8212,474.6016 189.0172,474.6016 M1731.3942,492.5996 C1538.6042,492.5996 1538.6042,288.4616 1345.8192,288.4616 C1153.0212,288.4616 1153.0212,492.5996 960.2282,492.5996 C767.4272,492.5996 767.4272,288.4616 574.6222,288.4616 C381.8212,288.4616 381.8212,492.5996 189.0172,492.5996 M1731.3942,510.6016 C1538.6042,510.6016 1538.6042,306.4636 1345.8192,306.4636 C1153.0212,306.4636 1153.0212,510.6016 960.2282,510.6016 C767.4272,510.6016 767.4272,306.4636 574.6222,306.4636 C381.8212,306.4636 381.8212,510.6016 189.0172,510.6016 M1731.3942,528.6036 C1538.6042,528.6036 1538.6042,324.4656 1345.8192,324.4656 C1153.0212,324.4656 1153.0212,528.6036 960.2282,528.6036 C767.4272,528.6036 767.4272,324.4656 574.6222,324.4656 C381.8212,324.4656 381.8212,528.6036 189.0172,528.6036 M1731.3942,546.6056 C1538.6042,546.6056 1538.6042,342.4676 1345.8192,342.4676 C1153.0212,342.4676 1153.0212,546.6056 960.2282,546.6056 C767.4272,546.6056 767.4272,342.4676 574.6222,342.4676 C381.8212,342.4676 381.8212,546.6056 189.0172,546.6056 M1731.3942,564.6076 C1538.6042,564.6076 1538.6042,360.4696 1345.8192,360.4696 C1153.0212,360.4696 1153.0212,564.6076 960.2282,564.6076 C767.4272,564.6076 767.4272,360.4696 574.6222,360.4696 C381.8212,360.4696 381.8212,564.6076 189.0172,564.6076 M1731.3942,582.6096 C1538.6042,582.6096 1538.6042,378.4716 1345.8192,378.4716 C1153.0212,378.4716 1153.0212,582.6096 960.2282,582.6096 C767.4272,582.6096 767.4272,378.4716 574.6222,378.4716 C381.8212,378.4716 381.8212,582.6096 189.0172,582.6096 M189.0172,582.6096 C381.8062,582.6096 381.8062,786.7476 574.5922,786.7476 C767.3892,786.7476 767.3892,582.6096 960.1832,582.6096 C1152.9842,582.6096 1152.9842,786.7476 1345.7882,786.7476 C1538.5892,786.7476 1538.5892,582.6096 1731.3942,582.6096 M189.0172,564.6076 C381.8062,564.6076 381.8062,768.7456 574.5922,768.7456 C767.3892,768.7456 767.3892,564.6076 960.1832,564.6076 C1152.9842,564.6076 1152.9842,768.7456 1345.7882,768.7456 C1538.5892,768.7456 1538.5892,564.6076 1731.3942,564.6076 M189.0172,546.6056 C381.8062,546.6056 381.8062,750.7436 574.5922,750.7436 C767.3892,750.7436 767.3892,546.6056 960.1832,546.6056 C1152.9842,546.6056 1152.9842,750.7436 1345.7882,750.7436 C1538.5892,750.7436 1538.5892,546.6056 1731.3942,546.6056 M189.0172,528.6036 C381.8062,528.6036 381.8062,732.7416 574.5922,732.7416 C767.3892,732.7416 767.3892,528.6036 960.1832,528.6036 C1152.9842,528.6036 1152.9842,732.7416 1345.7882,732.7416 C1538.5892,732.7416 1538.5892,528.6036 1731.3942,528.6036 M189.0172,510.6016 C381.8062,510.6016 381.8062,714.7396 574.5922,714.7396 C767.3892,714.7396 767.3892,510.6016 960.1832,510.6016 C1152.9842,510.6016 1152.9842,714.7396 1345.7882,714.7396 C1538.5892,714.7396 1538.5892,510.6016 1731.3942,510.6016 M189.0172,492.5996 C381.8062,492.5996 381.8062,696.7376 574.5922,696.7376 C767.3892,696.7376 767.3892,492.5996 960.1832,492.5996 C1152.9842,492.5996 1152.9842,696.7376 1345.7882,696.7376 C1538.5892,696.7376 1538.5892,492.5996 1731.3942,492.5996 M189.0172,474.6016 C381.8062,474.6016 381.8062,678.7396 574.5922,678.7396 C767.3892,678.7396 767.3892,474.6016 960.1832,474.6016 C1152.9842,474.6016 1152.9842,678.7396 1345.7882,678.7396 C1538.5892,678.7396 1538.5892,474.6016 1731.3942,474.6016 M189.0172,456.5996 C381.8062,456.5996 381.8062,660.7376 574.5922,660.7376 C767.3892,660.7376 767.3892,456.5996 960.1832,456.5996 C1152.9842,456.5996 1152.9842,660.7376 1345.7882,660.7376 C1538.5892,660.7376 1538.5892,456.5996 1731.3942,456.5996 M189.0172,438.5976 C381.8062,438.5976 381.8062,642.7356 574.5922,642.7356 C767.3892,642.7356 767.3892,438.5976 960.1832,438.5976 C1152.9842,438.5976 1152.9842,642.7356 1345.7882,642.7356 C1538.5892,642.7356 1538.5892,438.5976 1731.3942,438.5976 M189.0172,420.5956 C381.8062,420.5956 381.8062,624.7336 574.5922,624.7336 C767.3892,624.7336 767.3892,420.5956 960.1832,420.5956 C1152.9842,420.5956 1152.9842,624.7336 1345.7882,624.7336 C1538.5892,624.7336 1538.5892,420.5956 1731.3942,420.5956 M189.0172,402.5936 C381.8062,402.5936 381.8062,606.7316 574.5922,606.7316 C767.3892,606.7316 767.3892,402.5936 960.1832,402.5936 C1152.9842,402.5936 1152.9842,606.7316 1345.7882,606.7316 C1538.5892,606.7316 1538.5892,402.5936 1731.3942,402.5936 M189.0172,384.5916 C381.8062,384.5916 381.8062,588.7296 574.5922,588.7296 C767.3892,588.7296 767.3892,384.5916 960.1832,384.5916 C1152.9842,384.5916 1152.9842,588.7296 1345.7882,588.7296 C1538.5892,588.7296 1538.5892,384.5916 1731.3942,384.5916 M189.0172,366.5896 C381.8062,366.5896 381.8062,570.7276 574.5922,570.7276 C767.3892,570.7276 767.3892,366.5896 960.1832,366.5896 C1152.9842,366.5896 1152.9842,570.7276 1345.7882,570.7276 C1538.5892,570.7276 1538.5892,366.5896 1731.3942,366.5896 M189.0172,348.5876 C381.8062,348.5876 381.8062,552.7256 574.5922,552.7256 C767.3892,552.7256 767.3892,348.5876 960.1832,348.5876 C1152.9842,348.5876 1152.9842,552.7256 1345.7882,552.7256 C1538.5892,552.7256 1538.5892,348.5876 1731.3942,348.5876 M189.0172,330.5856 C381.8062,330.5856 381.8062,534.7236 574.5922,534.7236 C767.3892,534.7236 767.3892,330.5856 960.1832,330.5856 C1152.9842,330.5856 1152.9842,534.7236 1345.7882,534.7236 C1538.5892,534.7236 1538.5892,330.5856 1731.3942,330.5856 M189.0172,312.5836 C381.8062,312.5836 381.8062,516.7216 574.5922,516.7216 C767.3892,516.7216 767.3892,312.5836 960.1832,312.5836 C1152.9842,312.5836 1152.9842,516.7216 1345.7882,516.7216 C1538.5892,516.7216 1538.5892,312.5836 1731.3942,312.5836 M189.0172,294.5856 C381.8062,294.5856 381.8062,498.7236 574.5922,498.7236 C767.3892,498.7236 767.3892,294.5856 960.1832,294.5856 C1152.9842,294.5856 1152.9842,498.7236 1345.7882,498.7236 C1538.5892,498.7236 1538.5892,294.5856 1731.3942,294.5856 M189.0172,276.5836 C381.8062,276.5836 381.8062,480.7216 574.5922,480.7216 C767.3892,480.7216 767.3892,276.5836 960.1832,276.5836 C1152.9842,276.5836 1152.9842,480.7216 1345.7882,480.7216 C1538.5892,480.7216 1538.5892,276.5836 1731.3942,276.5836 M189.0172,258.5816 C381.8062,258.5816 381.8062,462.7196 574.5922,462.7196 C767.3892,462.7196 767.3892,258.5816 960.1832,258.5816 C1152.9842,258.5816 1152.9842,462.7196 1345.7882,462.7196 C1538.5892,462.7196 1538.5892,258.5816 1731.3942,258.5816 M189.0172,240.5796 C381.8062,240.5796 381.8062,444.7176 574.5922,444.7176 C767.3892,444.7176 767.3892,240.5796 960.1832,240.5796 C1152.9842,240.5796 1152.9842,444.7176 1345.7882,444.7176 C1538.5892,444.7176 1538.5892,240.5796 1731.3942,240.5796 M189.0172,222.5776 C381.8062,222.5776 381.8062,426.7156 574.5922,426.7156 C767.3892,426.7156 767.3892,222.5776 960.1832,222.5776 C1152.9842,222.5776 1152.9842,426.7156 1345.7882,426.7156 C1538.5892,426.7156 1538.5892,222.5776 1731.3942,222.5776 M189.0172,204.5756 C381.8062,204.5756 381.8062,408.7136 574.5922,408.7136 C767.3892,408.7136 767.3892,204.5756 960.1832,204.5756 C1152.9842,204.5756 1152.9842,408.7136 1345.7882,408.7136 C1538.5892,408.7136 1538.5892,204.5756 1731.3942,204.5756 M1731.3942,204.3906 C1835.7842,204.3906 1920.4112,289.0136 1920.4112,393.4036 C1920.4112,497.7976 1835.7842,582.4206 1731.3942,582.4206 M1731.3942,222.3846 C1825.8462,222.3846 1902.4162,298.9516 1902.4162,393.4036 C1902.4162,487.8586 1825.8462,564.4256 1731.3942,564.4256 M1731.3942,240.3756 C1815.9072,240.3756 1884.4222,308.8906 1884.4222,393.4036 C1884.4222,477.9206 1815.9072,546.4316 1731.3942,546.4316 M1731.3942,258.3696 C1805.9722,258.3696 1866.4282,318.8286 1866.4282,393.4036 C1866.4282,467.9816 1805.9722,528.4366 1731.3942,528.4366 M1731.3942,276.3646 C1796.0342,276.3646 1848.4332,328.7676 1848.4332,393.4036 C1848.4332,458.0436 1796.0342,510.4466 1731.3942,510.4466 M1731.3942,294.3586 C1786.0952,294.3586 1830.4392,338.7056 1830.4392,393.4036 C1830.4392,448.1046 1786.0952,492.4516 1731.3942,492.4516 M1731.3942,312.3526 C1776.1572,312.3526 1812.4442,348.6406 1812.4442,393.4036 C1812.4442,438.1666 1776.1572,474.4576 1731.3942,474.4576 M1731.3942,330.3516 C1766.2182,330.3516 1794.4502,358.5786 1794.4502,393.4036 C1794.4502,428.2316 1766.2182,456.4596 1731.3942,456.4596 M1731.3942,348.3456 C1756.2802,348.3456 1776.4562,368.5176 1776.4562,393.4036 C1776.4562,418.2936 1756.2802,438.4646 1731.3942,438.4646 M1731.3942,366.3396 C1746.3412,366.3396 1758.4612,378.4556 1758.4612,393.4036 C1758.4612,408.3546 1746.3412,420.4706 1731.3942,420.4706 M1731.3942,384.3346 C1736.4032,384.3346 1740.4672,388.3946 1740.4672,393.4036 C1740.4672,398.4166 1736.4032,402.4796 1731.3942,402.4796 M189.0172,582.7986 C84.6262,582.7986 0.0002,498.1716 0.0002,393.7816 C0.0002,289.3876 84.6262,204.7606 189.0172,204.7606 M189.0172,564.8036 C94.5652,564.8036 17.9942,488.2336 17.9942,393.7816 C17.9942,299.3256 94.5652,222.7586 189.0172,222.7586 M189.0172,546.8096 C104.5032,546.8096 35.9892,478.2946 35.9892,393.7816 C35.9892,309.2646 104.5032,240.7536 189.0172,240.7536 M189.0172,528.8156 C114.4382,528.8156 53.9832,468.3566 53.9832,393.7816 C53.9832,319.2026 114.4382,258.7476 189.0172,258.7476 M189.0172,510.8206 C124.3772,510.8206 71.9772,458.4176 71.9772,393.7816 C71.9772,329.1416 124.3772,276.7386 189.0172,276.7386 M189.0172,492.8266 C134.3152,492.8266 89.9722,448.4796 89.9722,393.7816 C89.9722,339.0796 134.3152,294.7326 189.0172,294.7326 M189.0172,474.8316 C144.2542,474.8316 107.9662,438.5446 107.9662,393.7816 C107.9662,349.0186 144.2542,312.7276 189.0172,312.7276 M189.0172,456.8336 C154.1922,456.8336 125.9612,428.6056 125.9612,393.7816 C125.9612,358.9536 154.1922,330.7256 189.0172,330.7256 M189.0172,438.8396 C164.1312,438.8396 143.9552,418.6676 143.9552,393.7816 C143.9552,368.8916 164.1312,348.7196 189.0172,348.7196 M189.0172,420.8446 C174.0692,420.8446 161.9492,408.7286 161.9492,393.7816 C161.9492,378.8306 174.0692,366.7146 189.0172,366.7146 M189.0172,402.8506 C184.0082,402.8506 179.9442,398.7906 179.9442,393.7816 C179.9442,388.7686 184.0082,384.7046 189.0172,384.7046" id="Stroke-5" sketch:type="MSShapeGroup"></path>
        </g>
    </g>
</svg>