<?xml version="1.0" encoding="UTF-8" standalone="no"?>
<svg width="26px" height="26px" viewBox="0 0 26 26" version="1.1" xmlns="http://www.w3.org/2000/svg" xmlns:xlink="http://www.w3.org/1999/xlink" xmlns:sketch="http://www.bohemiancoding.com/sketch/ns">
    <!-- Generator: Sketch 3.4.4 (17249) - http://www.bohemiancoding.com/sketch -->
    <title>wacht-icon</title>
    <desc>Created with Sketch.</desc>
    <defs></defs>
    <g id="can-elements" stroke="none" stroke-width="1" fill="none" fill-rule="evenodd" sketch:type="MSPage">
        <g id="can-forms" sketch:type="MSArtboardGroup" transform="translate(-175.000000, -1511.000000)">
            <g id="wacht-icon" sketch:type="MSLayerGroup" transform="translate(176.000000, 1512.000000)">
                <path d="M12,24 C18.627417,24 24,18.627417 24,12 C24,5.372583 18.627417,0 12,0 C5.372583,0 0,5.372583 0,12 C0,18.627417 5.372583,24 12,24 Z" id="Oval-55" stroke="#10364B" sketch:type="MSShapeGroup"></path>
                <g id="Oval-17-+-Oval-17-+-Oval-17" transform="translate(4.000000, 10.000000)" fill="#10364B" sketch:type="MSShapeGroup">
                    <path d="M2,4 C3.1045695,4 4,3.1045695 4,2 C4,0.8954305 3.1045695,0 2,0 C0.8954305,0 0,0.8954305 0,2 C0,3.1045695 0.8954305,4 2,4 Z" id="Oval-17"></path>
                    <path d="M8,4 C9.1045695,4 10,3.1045695 10,2 C10,0.8954305 9.1045695,0 8,0 C6.8954305,0 6,0.8954305 6,2 C6,3.1045695 6.8954305,4 8,4 Z" id="Oval-17"></path>
                    <path d="M14,4 C15.1045695,4 16,3.1045695 16,2 C16,0.8954305 15.1045695,0 14,0 C12.8954305,0 12,0.8954305 12,2 C12,3.1045695 12.8954305,4 14,4 Z" id="Oval-17"></path>
                </g>
            </g>
        </g>
    </g>
</svg>