<?xml version="1.0" encoding="UTF-8" standalone="no"?>
<svg width="18px" height="18px" viewBox="0 0 18 18" version="1.1" xmlns="http://www.w3.org/2000/svg" xmlns:xlink="http://www.w3.org/1999/xlink" xmlns:sketch="http://www.bohemiancoding.com/sketch/ns">
    <!-- Generator: Sketch 3.5 (25232) - http://www.bohemiancoding.com/sketch -->
    <title>Group 8</title>
    <desc>Created with Sketch.</desc>
    <defs></defs>
    <g id="test-je-plan" stroke="none" stroke-width="1" fill="none" fill-rule="evenodd" sketch:type="MSPage">
        <g id="Group-8" sketch:type="MSLayerGroup" fill="#10364B">
            <path d="M9,1 L9,1 C4.581722,1 1,4.581722 1,9 C1,13.418278 4.581722,17 9,17 C13.418278,17 17,13.418278 17,9 C17,4.581722 13.418278,1 9,1 L9,1 Z M18,9 C18,13.9705627 13.9705627,18 9,18 C4.02943725,18 0,13.9705627 0,9 C0,4.02943725 4.02943725,0 9,0 C13.9705627,0 18,4.02943725 18,9 Z" id="Shape" sketch:type="MSShapeGroup"></path>
            <path d="M4.66590486,11.9764797 L9.29528781,7.06066017 L8.62938296,7.06066017 L13.3340951,12.0564698 L14,11.349363 L9.29528781,6.35355339 L8.96233539,6 L8.62938296,6.35355339 L4,11.2693729 L4.66590486,11.9764797 L4.66590486,11.9764797 Z" id="Shape" sketch:type="MSShapeGroup"></path>
        </g>
    </g>
</svg>
